<?xml version="1.0" encoding="UTF-8"?>
<svg data-bbox="-1072.449 0 1272.449 474.057" xmlns="http://www.w3.org/2000/svg" viewBox="0 0 200 200" stroke-miterlimit="10" clip-rule="evenodd" stroke-linecap="round" stroke-linejoin="round" data-type="ugc">
    <g>
        <defs>
            <clipPath id="f3d4a70a-b8e6-41fd-b30e-11257ce50aab">
                <path d="M166.345 32.886v134H33.655v-134h132.69z"/>
            </clipPath>
        </defs>
        <clipPath id="0e714631-4b0b-4571-98c7-b7d895ccd3b5">
            <path d="M200 0v200H0V0h200z"/>
        </clipPath>
        <g clip-path="url(#0e714631-4b0b-4571-98c7-b7d895ccd3b5)">
            <path fill-rule="evenodd" fill="#ffffff" d="M0 100C0 44.772 44.772 0 100 0s100 44.772 100 100-44.772 100-100 100S0 155.228 0 100Z"/>
            <path fill-rule="evenodd" fill="#141414" d="M-1027.82 351.28c-2.79 1.163-5.98 1.64-8.37 3.49-8.01 6.19-14.35 18.417-19.03 27.033-8.49 15.65-14.31 30.751-16.2 48.538-1.29 12.178-3.21 25.73 7.3 34.457 8.38 6.959 21.4 7.889 31.74 8.687 28.73 2.216 55.06-1.934 81.355-13.735"/>
            <path fill-rule="evenodd" d="M37.765 139.886v-9.72l17.82-52.29h-17.01v-10.89h32.85v9.09l-18.09 52.92h18.27v10.89h-33.84Z" clip-path="url(#f3d4a70a-b8e6-41fd-b30e-11257ce50aab)" fill="#141414"/>
            <path fill-rule="evenodd" d="m74.755 139.886 14.13-39.24-13.5-33.66h15.21l8.01 19.71 6.48-19.71h13.41l-12.78 37.89 14.22 35.01h-15.12l-8.91-21.78-7.83 21.78h-13.32Z" clip-path="url(#f3d4a70a-b8e6-41fd-b30e-11257ce50aab)" fill="#141414"/>
            <path fill-rule="evenodd" d="M135.055 139.886v-29.79l-13.86-43.11h15.21l6.93 23.04 6.21-23.04h14.58l-13.59 43.11v29.79h-15.48Z" clip-path="url(#f3d4a70a-b8e6-41fd-b30e-11257ce50aab)" fill="#141414"/>
        </g>
    </g>
</svg>
