<?xml version="1.0" encoding="UTF-8"?>
<svg data-bbox="7.47 8.313 455.94 74.7" xmlns="http://www.w3.org/2000/svg" viewBox="0 0 470 90" stroke-miterlimit="10" clip-rule="evenodd" stroke-linecap="round" stroke-linejoin="round" data-type="ugc">
    <g>
        <defs>
            <clipPath id="d0e0ad88-b3d6-4964-a7a3-3feff7c6c8a7">
                <path d="M490.28-24.977V90.055H-9.95V-24.977h500.23z"/>
            </clipPath>
        </defs>
        <path fill-rule="evenodd" d="M7.47 82.022v-9.72l17.82-52.29H8.28V9.122h32.85v9.09l-18.09 52.92h18.27v10.89H7.47Z" clip-path="url(#d0e0ad88-b3d6-4964-a7a3-3feff7c6c8a7)" fill="#141414"/>
        <path fill-rule="evenodd" d="m44.46 82.022 14.13-39.24-13.5-33.66H60.3l8.01 19.71 6.48-19.71H88.2l-12.78 37.89 14.22 35.01H74.52l-8.91-21.78-7.83 21.78H44.46Z" clip-path="url(#d0e0ad88-b3d6-4964-a7a3-3feff7c6c8a7)" fill="#141414"/>
        <path fill-rule="evenodd" d="M104.76 82.022v-29.79L90.9 9.123h15.21l6.93 23.04 6.21-23.04h14.58l-13.59 43.11v29.79h-15.48Z" clip-path="url(#d0e0ad88-b3d6-4964-a7a3-3feff7c6c8a7)" fill="#141414"/>
        <path fill-rule="evenodd" d="m154.35 82.022-17.64-72.9h4.86l15.12 64.35 14.13-64.35h4.77l-16.65 72.9h-4.59Z" clip-path="url(#d0e0ad88-b3d6-4964-a7a3-3feff7c6c8a7)" fill="#141414"/>
        <path fill-rule="evenodd" d="M184.41 82.022v-72.9h25.2v3.96h-20.25v29.25h16.65v3.78h-16.65v32.04h20.52v3.87h-25.47Z" clip-path="url(#d0e0ad88-b3d6-4964-a7a3-3feff7c6c8a7)" fill="#141414"/>
        <path fill-rule="evenodd" d="M219.87 82.022v-72.9h3.87l24.75 61.56V9.123h4.32v72.9h-3.87l-24.75-61.65v61.65h-4.32Z" clip-path="url(#d0e0ad88-b3d6-4964-a7a3-3feff7c6c8a7)" fill="#141414"/>
        <path fill-rule="evenodd" d="M275.85 82.022v-68.94h-14.58v-3.96h33.66v3.96h-14.22v68.94h-4.86Z" clip-path="url(#d0e0ad88-b3d6-4964-a7a3-3feff7c6c8a7)" fill="#141414"/>
        <path fill-rule="evenodd" d="M320.76 83.013c-4.74 0-8.43-.796-11.07-2.386-2.64-1.59-4.485-3.75-5.535-6.48-1.05-2.73-1.575-5.805-1.575-9.225v-55.8h4.86v55.89c0 2.64.375 5.025 1.125 7.156.75 2.13 2.1 3.794 4.05 4.994 1.95 1.2 4.665 1.8 8.145 1.8 3.3 0 5.925-.615 7.875-1.844 1.95-1.23 3.345-2.895 4.185-4.995.84-2.1 1.26-4.47 1.26-7.11V9.123h4.77v55.8c0 3.42-.57 6.495-1.71 9.224-1.14 2.73-3.015 4.89-5.625 6.48-2.61 1.59-6.195 2.386-10.755 2.386Z" clip-path="url(#d0e0ad88-b3d6-4964-a7a3-3feff7c6c8a7)" fill="#141414"/>
        <path fill-rule="evenodd" d="M351.45 82.022v-72.9h17.64c4.32 0 7.635.796 9.945 2.386 2.31 1.59 3.9 3.75 4.77 6.48.87 2.73 1.305 5.774 1.305 9.134 0 2.7-.285 5.28-.855 7.74-.57 2.46-1.62 4.545-3.15 6.255-1.53 1.71-3.765 2.806-6.705 3.286l11.7 37.62h-4.86l-11.34-36.72h-13.59v36.72h-4.86Zm4.86-40.5h12.6c3.12 0 5.49-.584 7.11-1.755 1.62-1.17 2.745-2.835 3.375-4.995.63-2.16.945-4.71.945-7.65 0-4.62-.765-8.13-2.295-10.53-1.53-2.4-4.605-3.6-9.225-3.6h-12.51v28.53Z" clip-path="url(#d0e0ad88-b3d6-4964-a7a3-3feff7c6c8a7)" fill="#141414"/>
        <path fill-rule="evenodd" d="M397.08 82.022v-72.9h25.2v3.96h-20.25v29.25h16.65v3.78h-16.65v32.04h20.52v3.87h-25.47Z" clip-path="url(#d0e0ad88-b3d6-4964-a7a3-3feff7c6c8a7)" fill="#141414"/>
        <path fill-rule="evenodd" d="M447.12 82.922c-3.84 0-7.005-.78-9.495-2.34-2.49-1.56-4.38-3.75-5.67-6.57-1.29-2.82-2.085-6.15-2.385-9.99l4.23-1.35c.42 3.18 1.065 6 1.935 8.46.87 2.46 2.205 4.365 4.005 5.715 1.8 1.35 4.29 2.026 7.47 2.026 3.6 0 6.435-.9 8.505-2.7 2.07-1.8 3.105-4.8 3.105-9 0-3.18-.825-6.046-2.475-8.596-1.65-2.55-3.975-5.294-6.975-8.234l-13.32-13.23c-2.22-2.28-3.84-4.56-4.86-6.84-1.02-2.28-1.53-4.62-1.53-7.02 0-4.8 1.485-8.49 4.455-11.07 2.97-2.58 6.825-3.87 11.565-3.87 2.46 0 4.68.315 6.66.945 1.98.63 3.705 1.65 5.175 3.06 1.47 1.41 2.625 3.284 3.465 5.624.84 2.34 1.38 5.22 1.62 8.64l-4.14.99c-.24-3.42-.81-6.27-1.71-8.55-.9-2.28-2.22-3.974-3.96-5.084-1.74-1.11-4.08-1.665-7.02-1.665-3.3 0-6.06.84-8.28 2.52-2.22 1.68-3.33 4.38-3.33 8.1 0 1.86.375 3.66 1.125 5.4.75 1.74 2.145 3.63 4.185 5.67l13.14 12.96c2.94 2.88 5.475 5.954 7.605 9.224 2.13 3.27 3.195 6.855 3.195 10.756 0 3.66-.69 6.674-2.07 9.044s-3.3 4.126-5.76 5.266c-2.46 1.14-5.28 1.71-8.46 1.71Z" clip-path="url(#d0e0ad88-b3d6-4964-a7a3-3feff7c6c8a7)" fill="#141414"/>
    </g>
</svg>
