<?xml version="1.0" encoding="UTF-8"?>
<svg data-bbox="2 3.01 46 42.99" height="50" width="50" viewBox="0 0 50 50" xmlns="http://www.w3.org/2000/svg" data-type="shape">
    <g>
        <path d="M14 16v29c0 .55-.45 1-1 1H3c-.55 0-1-.45-1-1V16c0-.55.45-1 1-1h10c.55 0 1 .45 1 1zm-.01-8.11c0 2.98-2.52 5.1-5.99 5.1-3.41 0-5.99-2.17-5.99-5.04 0-2.86 2.52-4.94 5.99-4.94 3.36 0 5.83 2.01 5.99 4.88zM48 28v17c0 .55-.45 1-1 1h-9a1 1 0 0 1-1-1V29.5c0-2.37-1.82-4.3-4.14-4.48-.12-.02-.24-.02-.36-.02s-.24 0-.36.02A4.486 4.486 0 0 0 28 29.5V45a1 1 0 0 1-1 1h-9c-.55 0-1-.45-1-1V16c0-.55.45-1 1-1h10c.55 0 1 .45 1 1v1.49c1.61-1.13 4.27-2.49 7.79-2.49C44.53 15 48 21.53 48 28z"/>
    </g>
</svg>
