<?xml version="1.0" encoding="UTF-8"?>
<svg data-bbox="2 5 46.014 39.864" height="50" width="50" viewBox="0 0 50 50" xmlns="http://www.w3.org/2000/svg" data-type="shape">
    <g>
        <path d="M41 5c-6.788-.009-10.533 3.796-12.832 11.209 1.204-.443 2.409-.996 3.504-.996 2.299 0 3.066.859 2.738 3.514-.109 1.659-.767 4.341-2.738 7.439C29.701 29.153 27.985 30 27 30c-1.204 0-2.117-1.732-3.102-6.379-.328-1.328-1.095-4.315-1.971-9.957C21.16 8.464 18.613 5.668 15 6c-1.533.111-3.365 1.536-6.431 4.191-2.19 1.991-4.27 3.43-6.569 5.421l2.19 2.809c2.08-1.438 3.285-1.991 3.613-1.991 1.533 0 2.956 2.434 4.38 7.413 1.204 4.536 2.518 9.072 3.723 13.608 1.861 4.979 4.161 7.413 6.788 7.413 4.38 0 9.635-3.983 15.876-12.17C44.7 24.949 47.781 18.536 48 14c.219-5.974-2.183-8.889-7-9z"/>
    </g>
</svg>
