<?xml version="1.0" encoding="UTF-8"?>
<svg data-bbox="3 3 44 44" height="50" width="50" viewBox="0 0 50 50" xmlns="http://www.w3.org/2000/svg" data-type="shape">
    <g>
        <path d="M34 3H16C8.83 3 3 8.83 3 16v18c0 7.17 5.83 13 13 13h18c7.17 0 13-5.83 13-13V16c0-7.17-5.83-13-13-13zm-9 33c-6.07 0-11-4.93-11-11s4.93-11 11-11 11 4.93 11 11-4.93 11-11 11zm12-21c-1.1 0-2-.9-2-2s.9-2 2-2 2 .9 2 2-.9 2-2 2z"/>
        <path d="M34 25c0 4.96-4.04 9-9 9s-9-4.04-9-9 4.04-9 9-9 9 4.04 9 9z"/>
    </g>
</svg>
