<?xml version="1.0" encoding="UTF-8"?>
<svg data-bbox="4 3 42 44" height="50" width="50" viewBox="0 0 50 50" xmlns="http://www.w3.org/2000/svg" data-type="shape">
    <g>
        <path d="M40.819 37.163 31.05 5.507c-.623-1.998-2.702-2.944-4.572-2.313-1.975.631-2.91 2.734-2.286 4.627l9.768 31.655C34.48 40.948 35.934 42 37.389 42a3.7 3.7 0 0 0 1.143-.21c1.871-.631 2.91-2.735 2.287-4.627zm-13.96 5L17 10.507c-.623-1.998-2.702-2.944-4.572-2.313-1.975.631-2.91 2.734-2.286 4.627L20 44.476C20.52 45.948 21.975 47 23.429 47a3.7 3.7 0 0 0 1.143-.21c1.871-.631 2.91-2.735 2.287-4.627z"/>
        <path d="M41.815 11.527c-.602-2.014-2.61-2.967-4.417-2.332L6.384 19.793c-1.807.636-2.811 2.755-2.209 4.663C4.677 26.046 6.083 27 7.488 27c.402 0 .803-.106 1.104-.212L39.606 16.19c1.908-.636 2.811-2.756 2.209-4.663zm3.96 13.991c-.602-1.909-2.607-2.969-4.411-2.333L10.39 33.789c-1.905.636-2.807 2.757-2.206 4.666C8.686 40.046 9.989 41 11.493 41c.301 0 .702-.106 1.103-.212L43.669 30.29c1.805-.743 2.807-2.863 2.106-4.772z"/>
    </g>
</svg>
